{"asset":{"version":"2.0","generator":"Blockbench 4.12.5 glTF exporter"},"scenes":[{"nodes":[5],"name":"blockbench_export"}],"scene":0,"nodes":[{"translation":[-4.336808689942018e-19,0.003515624999999998,0],"name":"cuboid","mesh":0},{"translation":[-4.336808689942018e-19,0.003515624999999998,0],"name":"cuboid","mesh":1},{"translation":[0.0125,-0.03125,-0.0125],"name":"cuboid","mesh":2},{"translation":[-0.015625,-0.03125,-0.0125],"name":"cuboid","mesh":3},{"rotation":[0,0.7071067811865475,0,0.7071067811865476],"translation":[-0.0015624999999999994,0,0.009375000000000003],"name":"cuboid","mesh":4},{"children":[0,1,2,3,4]}],"bufferViews":[{"buffer":0,"byteOffset":0,"byteLength":672,"target":34962,"byteStride":12},{"buffer":0,"byteOffset":672,"byteLength":672,"target":34962,"byteStride":12},{"buffer":0,"byteOffset":1344,"byteLength":448,"target":34962,"byteStride":8},{"buffer":0,"byteOffset":1792,"byteLength":168,"target":34963},{"buffer":0,"byteOffset":1960,"byteLength":288,"target":34962,"byteStride":12},{"buffer":0,"byteOffset":2248,"byteLength":288,"target":34962,"byteStride":12},{"buffer":0,"byteOffset":2536,"byteLength":192,"target":34962,"byteStride":8},{"buffer":0,"byteOffset":2728,"byteLength":72,"target":34963},{"buffer":0,"byteOffset":2800,"byteLength":288,"target":34962,"byteStride":12},{"buffer":0,"byteOffset":3088,"byteLength":288,"target":34962,"byteStride":12},{"buffer":0,"byteOffset":3376,"byteLength":192,"target":34962,"byteStride":8},{"buffer":0,"byteOffset":3568,"byteLength":72,"target":34963},{"buffer":0,"byteOffset":3640,"byteLength":288,"target":34962,"byteStride":12},{"buffer":0,"byteOffset":3928,"byteLength":288,"target":34962,"byteStride":12},{"buffer":0,"byteOffset":4216,"byteLength":192,"target":34962,"byteStride":8},{"buffer":0,"byteOffset":4408,"byteLength":72,"target":34963},{"buffer":0,"byteOffset":4480,"byteLength":288,"target":34962,"byteStride":12},{"buffer":0,"byteOffset":4768,"byteLength":288,"target":34962,"byteStride":12},{"buffer":0,"byteOffset":5056,"byteLength":192,"target":34962,"byteStride":8},{"buffer":0,"byteOffset":5248,"byteLength":72,"target":34963}],"buffers":[{"byteLength":5320,"uri":"data:application/octet-stream;base64,"}],"accessors":[{"bufferView":0,"componentType":5126,"count":56,"max":[0.03125,0.0074218749068677425,0.03125],"min":[-0.03125,-0.0035156249068677425,-0.03125],"type":"VEC3"},{"bufferView":1,"componentType":5126,"count":56,"max":[1,1,1],"min":[-1,-1,-1],"type":"VEC3"},{"bufferView":2,"componentType":5126,"count":56,"max":[0.4375,0.4375],"min":[0,0],"type":"VEC2"},{"bufferView":3,"componentType":5123,"count":84,"max":[55],"min":[0],"type":"SCALAR"},{"bufferView":4,"componentType":5126,"count":24,"max":[0.02656250074505806,-0.001953125,0.02656250074505806],"min":[-0.02656250074505806,-0.005078124813735485,-0.02656250074505806],"type":"VEC3"},{"bufferView":5,"componentType":5126,"count":24,"max":[1,1,1],"min":[-1,-1,-1],"type":"VEC3"},{"bufferView":6,"componentType":5126,"count":24,"max":[0.3125,0.3125],"min":[0,0],"type":"VEC2"},{"bufferView":7,"componentType":5123,"count":36,"max":[23],"min":[0],"type":"SCALAR"},{"bufferView":8,"componentType":5126,"count":24,"max":[0.0078125,0.03437500074505806,0.03125],"min":[-0.0062500000931322575,0.02812499925494194,-0.0062500000931322575],"type":"VEC3"},{"bufferView":9,"componentType":5126,"count":24,"max":[0.9701424837112427,1,0.8944271802902222],"min":[-0.9701424837112427,-1,-0.8944271802902222],"type":"VEC3"},{"bufferView":10,"componentType":5126,"count":24,"max":[0.3125,0.3125],"min":[0,0],"type":"VEC2"},{"bufferView":11,"componentType":5123,"count":36,"max":[23],"min":[0],"type":"SCALAR"},{"bufferView":12,"componentType":5126,"count":24,"max":[0.0078125,0.03437500074505806,0.03125],"min":[-0.0062500000931322575,0.02812499925494194,-0.0062500000931322575],"type":"VEC3"},{"bufferView":13,"componentType":5126,"count":24,"max":[0.9701424837112427,1,0.8944271802902222],"min":[-0.9701424837112427,-1,-0.8944271802902222],"type":"VEC3"},{"bufferView":14,"componentType":5126,"count":24,"max":[0.3125,0.3125],"min":[0,0],"type":"VEC2"},{"bufferView":15,"componentType":5123,"count":36,"max":[23],"min":[0],"type":"SCALAR"},{"bufferView":16,"componentType":5126,"count":24,"max":[0.0062500000931322575,0.0031250000465661287,0.018124999478459358],"min":[-0.00937500037252903,-0.0024999999441206455,-0.01718750037252903],"type":"VEC3"},{"bufferView":17,"componentType":5126,"count":24,"max":[0.8741572499275208,1,0.986393928527832],"min":[-0.8741572499275208,-1,-0.9320046901702881],"type":"VEC3"},{"bufferView":18,"componentType":5126,"count":24,"max":[0.3125,0.3125],"min":[0,0],"type":"VEC2"},{"bufferView":19,"componentType":5123,"count":36,"max":[23],"min":[0],"type":"SCALAR"}],"materials":[{"pbrMetallicRoughness":{"metallicFactor":0,"roughnessFactor":1,"baseColorTexture":{"index":0}},"alphaMode":"MASK","alphaCutoff":0.05,"doubleSided":true},{"pbrMetallicRoughness":{"metallicFactor":0,"roughnessFactor":1,"baseColorTexture":{"index":1}},"alphaMode":"MASK","alphaCutoff":0.05,"doubleSided":true},{"pbrMetallicRoughness":{"metallicFactor":0,"roughnessFactor":1,"baseColorTexture":{"index":2}},"alphaMode":"MASK","alphaCutoff":0.05,"doubleSided":true}],"textures":[{"sampler":0,"source":0,"name":"texturetile"},{"sampler":1,"source":1,"name":"textureinnertile"},{"sampler":2,"source":2,"name":"texturecharacter"}],"samplers":[{"magFilter":9728,"minFilter":9728,"wrapS":33071,"wrapT":33071},{"magFilter":9728,"minFilter":9728,"wrapS":33071,"wrapT":33071},{"magFilter":9728,"minFilter":9728,"wrapS":33071,"wrapT":33071}],"images":[{"mimeType":"image/png","uri":"data:image/png;base64,"},{"mimeType":"image/png","uri":"data:image/png;base64,"},{"mimeType":"image/png","uri":"data:image/png;base64,"}],"meshes":[{"primitives":[{"mode":4,"attributes":{"POSITION":0,"NORMAL":1,"TEXCOORD_0":2},"indices":3,"material":0}]},{"primitives":[{"mode":4,"attributes":{"POSITION":4,"NORMAL":5,"TEXCOORD_0":6},"indices":7,"material":1}]},{"primitives":[{"mode":4,"attributes":{"POSITION":8,"NORMAL":9,"TEXCOORD_0":10},"indices":11,"material":2}]},{"primitives":[{"mode":4,"attributes":{"POSITION":12,"NORMAL":13,"TEXCOORD_0":14},"indices":15,"material":2}]},{"primitives":[{"mode":4,"attributes":{"POSITION":16,"NORMAL":17,"TEXCOORD_0":18},"indices":19,"material":2}]}]}